<svg width="401" height="400" viewBox="0 0 401 400" fill="none" xmlns="http://www.w3.org/2000/svg">
<path d="M139.403 338.499C215.928 372.264 305.335 337.6 339.1 261.075C372.864 184.55 338.2 95.1421 261.675 61.3775C185.15 27.6128 95.7426 62.2771 61.978 138.802C28.2133 215.327 62.8775 304.735 139.403 338.499Z" fill="#652CBE"/>
<path d="M142.148 318.897C212.09 349.758 293.808 318.075 324.668 248.132C355.528 178.189 323.846 96.4722 253.903 65.6118C183.96 34.7514 102.243 66.434 71.3826 136.377C40.5222 206.32 72.2048 288.037 142.148 318.897Z" fill="#5C29AB"/>
<path d="M144.892 299.295C208.253 327.252 282.28 298.551 310.236 235.19C338.192 171.829 309.491 97.8026 246.13 69.8464C182.77 41.8902 108.743 70.5912 80.7866 133.952C52.8305 197.312 81.5314 271.339 144.892 299.295Z" fill="#522698"/>
<path d="M147.637 279.693C204.415 304.745 270.752 279.026 295.804 222.248C320.856 165.469 295.136 99.1327 238.358 74.0807C181.58 49.0288 115.243 74.7482 90.1912 131.527C65.1393 188.305 90.8587 254.641 147.637 279.693Z" fill="#492384"/>
<path d="M150.388 260.095C200.584 282.242 259.23 259.504 281.378 209.308C303.526 159.112 280.788 100.466 230.592 78.3183C180.396 56.1706 121.749 78.9083 99.6017 129.104C77.454 179.301 100.192 237.947 150.388 260.095Z" fill="#402071"/>
<path d="M153.133 240.492C196.747 259.736 247.703 239.98 266.946 196.366C286.19 152.752 266.433 101.796 222.82 82.5526C179.206 63.3091 128.25 83.0653 109.006 126.679C89.7628 170.293 109.519 221.249 153.133 240.492Z" fill="#361D5E"/>
<path d="M155.877 220.891C192.909 237.23 236.175 220.456 252.514 183.424C268.853 146.392 252.079 103.127 215.047 86.7874C178.015 70.4482 134.75 87.2227 118.41 124.254C102.071 161.286 118.846 204.552 155.877 220.891Z" fill="#2D1A4B"/>
<path d="M158.622 201.289C189.071 214.724 224.647 200.931 238.082 170.482C251.517 140.032 237.724 104.457 207.274 91.0218C176.825 77.5868 141.249 91.3797 127.814 121.829C114.379 152.279 128.172 187.854 158.622 201.289Z" fill="#241737"/>
<path d="M161.367 181.687C185.234 192.218 213.119 181.407 223.65 157.539C234.181 133.672 223.369 105.787 199.502 95.2563C175.635 84.7256 147.75 95.5369 137.219 119.404C126.688 143.271 137.5 171.156 161.367 181.687Z" fill="#1A1424"/>
<path d="M164.111 162.085C181.396 169.712 201.591 161.882 209.217 144.597C216.844 127.312 209.014 107.117 191.729 99.4907C174.444 91.8642 154.25 99.6938 146.623 116.979C138.997 134.264 146.826 154.458 164.111 162.085Z" fill="#111111"/>
</svg>
