<svg width="1258" height="454" viewBox="0 0 1258 454" fill="none" xmlns="http://www.w3.org/2000/svg">
<path d="M-788 229.114C-788 17.3046 23.1678 0.012207 234.978 0.012207C446.787 0.012207 1257.95 17.3168 1257.95 229.114C1257.95 440.912 473.329 454 261.507 454C49.6851 454 -788 440.936 -788 229.114Z" fill="#111111"/>
<path d="M-703.183 228.944C-703.183 34.6944 40.729 18.8156 234.978 18.8156C429.228 18.8156 1173.14 34.6578 1173.14 228.944C1173.14 423.23 453.564 435.184 259.351 435.184C65.1381 435.184 -703.183 423.144 -703.183 228.944Z" fill="#1A1424"/>
<path d="M-618.366 228.761C-618.366 52.0598 58.2893 37.6434 234.978 37.6434C411.667 37.6434 1088.32 52.072 1088.32 228.761C1088.32 405.45 433.797 416.357 257.109 416.357C80.4196 416.357 -618.366 405.45 -618.366 228.761Z" fill="#241737"/>
<path d="M-533.55 228.59C-533.55 69.4618 75.8498 56.4591 234.978 56.4591C394.107 56.4591 1003.51 69.4618 1003.51 228.59C1003.51 387.719 414.044 397.553 254.915 397.553C95.7865 397.553 -533.55 387.719 -533.55 228.59Z" fill="#2D1A4B"/>
<path d="M-448.672 228.42C-448.672 86.8029 93.4105 75.2868 234.979 75.2868C376.547 75.2868 918.69 86.8516 918.69 228.42C918.69 369.988 394.278 378.713 252.71 378.713C111.142 378.713 -448.672 369.976 -448.672 228.42Z" fill="#361D5E"/>
<path d="M-363.917 228.237C-363.917 104.241 110.97 94.1146 234.977 94.1146C358.985 94.1146 833.872 104.254 833.872 228.249C833.872 352.244 374.449 359.861 250.515 359.861C126.58 359.861 -363.917 352.244 -363.917 228.237Z" fill="#402071"/>
<path d="M-279.101 228.066C-279.101 121.619 128.531 112.93 234.978 112.93C341.425 112.93 749.056 121.619 749.056 228.066C749.056 334.513 354.757 341.07 248.31 341.07C141.862 341.07 -279.101 334.501 -279.101 228.066Z" fill="#492384"/>
<path d="M-194.284 227.884C-194.284 139.009 146.103 131.746 234.978 131.746C323.852 131.746 664.24 139.058 664.24 227.884C664.24 316.709 334.991 322.254 246.116 322.254C157.241 322.254 -194.284 316.77 -194.284 227.884Z" fill="#522698"/>
<path d="M-109.455 227.713C-109.455 156.399 163.664 150.562 234.978 150.562C306.293 150.562 579.412 156.399 579.412 227.713C579.412 299.027 315.225 303.426 243.911 303.426C172.597 303.426 -109.455 299.027 -109.455 227.713Z" fill="#5C29AB"/>
<path d="M-24.5894 227.542C-24.5894 173.776 181.274 169.389 234.978 169.389C288.683 169.389 494.546 173.776 494.546 227.542C494.546 281.308 295.422 284.611 241.669 284.611C187.915 284.611 -24.5894 281.296 -24.5894 227.542Z" fill="#652CBE"/>
<path d="M488.063 233.233C488.063 259.348 445.935 266.904 419.82 266.904H58.4719C32.637 266.904 -9.32031 259.08 -9.32031 233.233C-9.32031 102.523 88.3161 0 234.978 0C366.907 0 488.063 129.991 488.063 233.233Z" fill="#652CBE"/>
</svg>
